<?xml version="1.0" encoding="utf-8"?>
<!-- Generator: Adobe Illustrator 22.1.0, SVG Export Plug-In . SVG Version: 6.00 Build 0)  -->
<svg version="1.1" id="Calque_1" xmlns="http://www.w3.org/2000/svg" xmlns:xlink="http://www.w3.org/1999/xlink" x="0px" y="0px"
	 viewBox="0 0 368.1 129.7" style="enable-background:new 0 0 368.1 129.7;" xml:space="preserve">
<style type="text/css">
	.st0{fill:#4F657A;}
	.st1{fill:#E3000B;}
	.st2{fill:#00A5AA;}
</style>
<g>
	<g>
		<path class="st0" d="M227.1,87.8c0,0,20.7-41.9-23.5-41.9c-38.7,0-51.4,34-53.7,42.2c-4.4,16.3,3.4,29.7,23.8,29.7
			c20.4,0,30.8,0,30.8,0l4.1-14l-28.7,0c0,0-20.7,0.8-12.5-15.9H227.1z M201.4,58.8c18.2,0,11.4,14.8,11.4,14.8h-39.1
			C173.8,73.6,182.2,58.8,201.4,58.8"/>
	</g>
	<polygon class="st0" points="258.1,10.4 224.1,117.9 241.8,117.9 275.8,10.4 	"/>
	<polygon class="st0" points="275.4,48.7 253.4,117.9 271.1,117.9 293.1,48.7 	"/>
	<polygon class="st0" points="297.9,32.6 280.2,32.6 286,13.5 303.7,13.5 	"/>
	<g>
		<path class="st0" d="M323.9,62.3c2.3,0,31.5-0.1,31.5-0.1l4.7-13.4l-33.2-0.1c0,0-20.5-1.1-29.6,15.8C287.9,82,302.9,89,313.7,89
			h14.2c1.7,0,7.3,0.6,5.2,6.5c-1.8,5-7.8,8.1-11.7,8.2c-2.3,0.1-36.7,0-36.7,0l-4.9,14.4h38.5c3.2,0,25.3-0.2,30.7-22.8
			c4.6-19.3-15.9-19.7-19.1-19.7h-11.2c-2,0-11.4,0.5-6.4-7.1C315.4,63.9,320.3,62.3,323.9,62.3"/>
		<path class="st1" d="M155.6,41c0,0-0.1-0.1-0.1-0.1c-0.5-0.6-0.9-0.9-1-1c-0.3-0.3-27.2-25.2-29.3-27.2c-0.4-0.3-0.7-0.6-1.1-0.9
			c-2.2-1.4-5.1-1.4-5.1-1.4H64.9c-0.9,0-1.4,0-1.6,0.1c-1.2,0.1-2,0.5-2.5,1.2c0,0-0.1,0.1-0.1,0.1c-1.2,1.4-0.9,3.9,0.7,5.4
			c2,2,18.6,18.2,23,22.6c3.9,3.8,3.7,6.3,3.7,6.4c0,0.1,0.1,0.8-0.4,2.1c-0.4,1.1-1.3,2.6-3.1,4.4c-0.6,0.6-1.4,1.4-2.2,2.2
			c-0.3,0.3-0.6,0.6-1,1c-4.9,4.8-13,12.8-17.4,17c-1.3,1.3-2.2,2.2-2.6,2.5c-1.7,1.6-1.9,4.4-0.4,5.8c0.5,0.5,1.3,0.9,2.3,0.9
			c0.5,0,1,0.1,1.6,0.1H108h11.1c0,0,2.8,0,5-1.4c0.4-0.2,0.8-0.5,1.1-0.9c2.1-2,29-26.9,29.3-27.2c0,0,0.4-0.4,0.9-0.9
			c0,0,0.1-0.1,0.1-0.1c0.8-1,2.1-2.9,2.1-5.3v-0.3C157.6,43.8,156.4,42,155.6,41"/>
		<path class="st2" d="M64.9,87.3c-0.5,0-1,0-1.5,0l-0.3,0c-2.1-0.1-4-0.9-5.5-2.3c-1.7-1.6-2.6-3.7-2.6-6.1c0-2.6,1-5.2,2.9-7.1
			l1.9-1.8l0.7-0.7l17.4-17l0.7-0.7l0.1-0.1c-1.5-1.4-2.7-2.5-3-2.8c-0.4-0.3-0.7-0.6-1.1-0.9c-2.2-1.4-5.1-1.4-5.1-1.4H15.2
			c-0.9,0-1.4,0-1.6,0.1c-1.2,0.1-2,0.5-2.5,1.2c0,0-0.1,0.1-0.1,0.1c-1.2,1.4-0.9,3.9,0.7,5.4c2,2,18.6,18.2,23,22.5
			c3.9,3.8,3.7,6.3,3.7,6.4c0,0.1,0.1,0.8-0.4,2.1c-0.4,1.1-1.3,2.6-3.1,4.4c-0.8,0.8-1.9,1.9-3.2,3.2c-4.9,4.8-13,12.8-17.4,17
			c-1.3,1.3-2.2,2.2-2.6,2.5c-1.7,1.6-1.9,4.4-0.4,5.8c0.5,0.5,1.3,0.9,2.3,0.9c0.5,0,1,0.1,1.6,0.1h54.2c0,0,2.8,0,5-1.4
			c0.4-0.2,0.8-0.5,1.1-0.9c2.1-2,29-26.9,29.3-27.2c0,0,0.4-0.4,0.9-0.9c0,0,0.1-0.1,0.1-0.1c0.1-0.1,0.2-0.2,0.2-0.3H64.9z"/>
	</g>
</g>
</svg>
